<?xml version="1.0" standalone="no"?><!DOCTYPE svg PUBLIC "-//W3C//DTD SVG 1.1//EN" "http://www.w3.org/Graphics/SVG/1.1/DTD/svg11.dtd"><svg t="1573050129459" class="icon" viewBox="0 0 1024 1024" version="1.1" xmlns="http://www.w3.org/2000/svg" p-id="3944" xmlns:xlink="http://www.w3.org/1999/xlink" width="200" height="200"><defs><style type="text/css"></style></defs><path d="M324.266667 744.106667c0 13.653333 3.413333 23.893333 13.653333 34.133333 10.24 10.24 20.48 13.653333 34.133333 13.653333s23.893333-3.413333 34.133334-13.653333c10.24-10.24 13.653333-20.48 13.653333-34.133333s-3.413333-23.893333-13.653333-34.133334c-10.24-10.24-20.48-13.653333-34.133334-13.653333s-23.893333 3.413333-34.133333 13.653333c-6.826667 10.24-13.653333 23.893333-13.653333 34.133334zM604.16 744.106667c0 13.653333 3.413333 23.893333 13.653333 34.133333 10.24 10.24 20.48 13.653333 34.133334 13.653333s23.893333-3.413333 34.133333-13.653333c10.24-10.24 13.653333-20.48 13.653333-34.133333s-3.413333-23.893333-13.653333-34.133334c-10.24-10.24-20.48-13.653333-34.133333-13.653333s-23.893333 3.413333-34.133334 13.653333c-6.826667 10.24-13.653333 23.893333-13.653333 34.133334zM1024 204.8L512 0 0 204.8l512 204.8 453.973333-180.906667c-3.413333 88.746667-13.653333 184.32-23.893333 194.56h61.44c-6.826667-13.653333-20.48-116.053333-20.48-204.8L1024 204.8z" p-id="3945"></path><path d="M535.893333 467.626667L215.04 327.68c-75.093333 75.093333-122.88 174.08-122.88 283.306667 0 225.28 197.973333 409.6 443.733333 409.6s443.733333-184.32 443.733334-409.6c0-112.64-47.786667-211.626667-126.293334-286.72l-317.44 143.36z m368.64 139.946666c0 194.56-163.84 351.573333-368.64 351.573334-197.973333 0-361.813333-150.186667-368.64-334.506667 0 3.413333 3.413333 3.413333 3.413334 6.826667 64.853333 81.92 225.28 68.266667 358.4-27.306667 17.066667-13.653333 34.133333-27.306667 51.2-44.373333-3.413333 68.266667-13.653333 109.226667-58.026667 143.36 61.44-23.893333 95.573333-75.093333 116.053333-126.293334 88.746667 75.093333 201.386667 95.573333 256 40.96l10.24-10.24z" p-id="3946"></path></svg>